<svg xmlns="http://www.w3.org/2000/svg" viewBox="0 0 170.21 157.21"><defs><style>.cls-1{fill:#e8e8e8;}.cls-2{fill:#0e0000;}</style></defs><g id="レイヤー_2" data-name="レイヤー 2"><g id="レイヤー_1-2" data-name="レイヤー 1"><ellipse class="cls-1" cx="46.07" cy="60.42" rx="46.07" ry="60.42"/><ellipse class="cls-1" cx="124.14" cy="60.42" rx="46.07" ry="60.42"/><path class="cls-1" d="M55.43,155.61c-.28,0-.48-.18-.62-.55a4.85,4.85,0,0,0-.74-1.21.94.94,0,0,1,.55-1.51,26.39,26.39,0,0,0,6.24-1.87c2.79-1.41,4.15-3.37,4.15-6A4.2,4.2,0,0,0,63.5,141a5.77,5.77,0,0,0-3.66-1.07c-2.54,0-6.19,1.05-10.85,3.1-1.22.6-1.9,1-2.05,1.06a1.59,1.59,0,0,1-.84.47c-.27,0-.56-.22-.87-.64a13.59,13.59,0,0,1-1.31-2,.94.94,0,0,1,.61-1.38,45,45,0,0,0,4.6-1.34c5-1.67,8.52-2.49,10.83-2.49a9.05,9.05,0,0,1,6.73,2.49,7.54,7.54,0,0,1,2.1,5.48,8.83,8.83,0,0,1-1.48,5.19,10.74,10.74,0,0,1-3.81,3.15,18.53,18.53,0,0,1-4,1.63c-.71.21-1.93.5-3.65.87A2.24,2.24,0,0,1,55.43,155.61Z"/><path class="cls-1" d="M87.69,157.21c-3.67,0-6.44-.55-8.23-1.63a4.65,4.65,0,0,1-.12-8,9.77,9.77,0,0,1,5.22-1.23,19.15,19.15,0,0,1,3.59.28h.11a.54.54,0,0,0,.46-.25.56.56,0,0,0,0-.62c-.4-.55-.83-1.19-1.28-1.91a.56.56,0,0,0-.47-.25h-.08a69.9,69.9,0,0,1-7.88.84.52.52,0,0,1-.54-.42c-.14-.5-.26-1-.36-1.39a.93.93,0,0,1,.89-1.11,54.41,54.41,0,0,0,6.3-.6.54.54,0,0,0,.41-.77L85,138.69a.55.55,0,0,0-.5-.32h-.08a52.31,52.31,0,0,1-6.88.66.54.54,0,0,1-.61-.43c0-.09-.11-.43-.48-2.39h.38a55.49,55.49,0,0,0,6.42-.4.54.54,0,0,0,.41-.26.55.55,0,0,0,0-.47c-.17-.49-.33-.92-.49-1.3s-.23-.54-.35-.78a1,1,0,0,1,.73-1.36,20.88,20.88,0,0,1,2.21-.12q.66,0,.66.54l-.06.58a.33.33,0,0,0,0,.14c0,.09,0,.31.12.75s.21.76.32,1.1a.56.56,0,0,0,.53.38h.11a45.22,45.22,0,0,0,5-1.25l.11-.05a.37.37,0,0,1,.14,0s.18,0,.25.22a15.14,15.14,0,0,1,.51,2l0,.11a.44.44,0,0,1-.37.44,40.55,40.55,0,0,1-4.56,1.17.54.54,0,0,0-.41.74c.19.47.4,1,.64,1.5a.55.55,0,0,0,.5.32h.12a36.45,36.45,0,0,0,5-1.46.55.55,0,0,1,.27-.09c.12,0,.22.09.27.26a12.14,12.14,0,0,1,.55,2,1.12,1.12,0,0,1,0,.22.36.36,0,0,1-.28.33,34.94,34.94,0,0,1-4.36,1.33.54.54,0,0,0-.38.32.52.52,0,0,0,0,.5,22.33,22.33,0,0,0,3.55,4.51.63.63,0,0,1,.25.39.86.86,0,0,1-.1.34,8.48,8.48,0,0,1-1.23,1.85.7.7,0,0,1-.47.31.85.85,0,0,1-.43-.18,8.56,8.56,0,0,0-1.77-1,14.57,14.57,0,0,0-5.65-.95,7,7,0,0,0-3.45.69,1.79,1.79,0,0,0-1,1.58c0,1,.68,1.7,2.09,2.1a19.86,19.86,0,0,0,5.07.49l3.3-.18c.24,0,.36.1.36.31V154a17.72,17.72,0,0,1-.6,2.7.64.64,0,0,1-.63.46C89.17,157.18,88.44,157.21,87.69,157.21Z"/><path class="cls-1" d="M99.29,134.23A.33.33,0,0,1,99,134a14.89,14.89,0,0,0-2.18-2.7.94.94,0,0,1,.11-1.43l.57-.4a.29.29,0,0,1,.19-.08s.1,0,.25.14a11.5,11.5,0,0,1,2.86,3.09.45.45,0,0,1,.09.25.38.38,0,0,1-.18.29l-1.2.93A.4.4,0,0,1,99.29,134.23Z"/><path class="cls-1" d="M96.55,136.24c-.09,0-.17-.06-.26-.19a16.73,16.73,0,0,0-2.21-2.73.93.93,0,0,1,.13-1.42l.62-.44a.31.31,0,0,1,.18-.07.43.43,0,0,1,.28.13,12.72,12.72,0,0,1,2.85,3.21.4.4,0,0,1,.08.22.31.31,0,0,1-.17.26l-1.26.93A.43.43,0,0,1,96.55,136.24Z"/><path class="cls-1" d="M128.27,152.37a.83.83,0,0,1-.43-.15,68.76,68.76,0,0,1-6.48-4.62c-1.48-1.12-3.6-2.91-6.31-5.33a1.89,1.89,0,0,0-1.42-.68,2.6,2.6,0,0,0-.93.62l-5,4.95a8.8,8.8,0,0,0-1.07,1.32.67.67,0,0,1-.55.36.79.79,0,0,1-.57-.26,18.83,18.83,0,0,1-1.82-2.21A1,1,0,0,1,104,145a14.12,14.12,0,0,0,1.69-1.15c1.2-1,3-2.52,5.38-4.65a4,4,0,0,1,2.61-1.27,3.27,3.27,0,0,1,1.38.28,6,6,0,0,1,1.23.84c4.08,3.26,6.26,5,6.49,5.16a79.17,79.17,0,0,0,7.1,4.42c.26.11.35.24.35.42a.42.42,0,0,1-.06.21,11.74,11.74,0,0,1-1.46,2.83C128.62,152.14,128.45,152.37,128.27,152.37Z"/><ellipse class="cls-2" cx="142.97" cy="60.42" rx="24.16" ry="31.69"/><ellipse class="cls-2" cx="64.59" cy="60.42" rx="24.16" ry="31.69"/></g></g></svg>