<svg xmlns="http://www.w3.org/2000/svg" viewBox="0 0 170.21 157.18"><defs><style>.cls-1{fill:#e8e8e8;}.cls-2{fill:#fff;stroke:#000;stroke-linecap:round;stroke-miterlimit:10;stroke-width:13.55px;}</style></defs><g id="レイヤー_2" data-name="レイヤー 2"><g id="レイヤー_1-2" data-name="レイヤー 1"><ellipse class="cls-1" cx="46.07" cy="60.42" rx="46.07" ry="60.42"/><ellipse class="cls-1" cx="124.14" cy="60.42" rx="46.07" ry="60.42"/><line class="cls-2" x1="31.86" y1="38.42" x2="134.33" y2="85.44"/><line class="cls-2" x1="134.33" y1="38.42" x2="31.86" y2="85.44"/><path class="cls-1" d="M56,156.18c-5.84,0-8.68-1.89-8.68-5.77a6.83,6.83,0,0,1,1.75-4.54,15.81,15.81,0,0,1,3.27-2.77,1.09,1.09,0,0,0,.45-1.22,45.69,45.69,0,0,1-1.32-6.55,18.26,18.26,0,0,0-.54-2.78.54.54,0,0,1,.53-.7,14.67,14.67,0,0,1,3.17.36c.36.09.54.24.54.47l-.22,1.26a.54.54,0,0,0,0,.18v.21c0,.27.06.76.14,1.63a44.25,44.25,0,0,0,.8,4.47.53.53,0,0,0,.3.38.62.62,0,0,0,.23,0,.58.58,0,0,0,.26-.06l2.25-1.2,1.39-.75A9.39,9.39,0,0,0,62,137.62a.53.53,0,0,1,.76,0,14,14,0,0,1,1.8,2.39,1.18,1.18,0,0,1,.21.63c0,.34-.21.55-.6.6a14.81,14.81,0,0,0-2.89.91,43.55,43.55,0,0,0-7.06,3.51c-2.36,1.55-3.55,3.08-3.55,4.55a2.06,2.06,0,0,0,1.25,2,9.09,9.09,0,0,0,3.53.51,52.33,52.33,0,0,0,9.17-.7l.19,0c.28,0,.34.29.35.38a26,26,0,0,1,.3,2.81.47.47,0,0,1-.08.32.66.66,0,0,1-.47.17A69.21,69.21,0,0,1,56,156.18Z"/><path class="cls-1" d="M93.94,139.26s-.15,0-.28-.17a15.83,15.83,0,0,0-2.51-3,.54.54,0,0,1,0-.85l1-.72a.29.29,0,0,1,.18-.07.38.38,0,0,1,.26.13,12.69,12.69,0,0,1,2.86,3.23.32.32,0,0,1,.09.22c0,.06,0,.15-.17.25l-1.27.94A.41.41,0,0,1,93.94,139.26Z"/><path class="cls-1" d="M84.89,156.58c-2.1,0-3.59-.52-4.45-1.54s-1.2-2.47-1.2-4.6c0-1.86.14-6.22.42-13,0-1,0-1.71,0-2.08a16.89,16.89,0,0,0-.2-2.72.53.53,0,0,1,.6-.61,27.75,27.75,0,0,1,3,.45c.72.18.72.47.72.57a3.49,3.49,0,0,1-.31,1,23.57,23.57,0,0,0-.41,3.65c-.3,4.73-.45,8.62-.45,11.55,0,1.74.18,2.79.56,3.23a3,3,0,0,0,2.2.58,11.61,11.61,0,0,0,5.26-1.48,19.36,19.36,0,0,0,4.51-3.28.54.54,0,0,1,.91.28,9.15,9.15,0,0,0,.54,1.81,2.23,2.23,0,0,1,.23.72,1.4,1.4,0,0,1-.6.94,16.85,16.85,0,0,1-5.84,3.51A16.3,16.3,0,0,1,84.89,156.58Z"/><path class="cls-1" d="M96.67,137.25s-.15,0-.28-.19a14.79,14.79,0,0,0-2.48-3,.53.53,0,0,1,0-.84l.94-.69a.5.5,0,0,1,.19-.07.52.52,0,0,1,.27.13,11.57,11.57,0,0,1,2.84,3.09.51.51,0,0,1,.09.25.38.38,0,0,1-.17.3l-1.21.94A.43.43,0,0,1,96.67,137.25Z"/><path class="cls-1" d="M116.42,157.18a7.28,7.28,0,0,1-4.67-1.32,3.81,3.81,0,0,1-1.41-3.1,3.29,3.29,0,0,1,1.4-2.71,4.43,4.43,0,0,1,2.84-1,5.71,5.71,0,0,1,3.79,1.27,5.61,5.61,0,0,1,1.68,2.51.54.54,0,0,0,.32.34.69.69,0,0,0,.2,0,.54.54,0,0,0,.27-.07,4.76,4.76,0,0,0,1.81-1.63,5,5,0,0,0,.65-2.64,4.23,4.23,0,0,0-1.49-3.44,4.71,4.71,0,0,0-3.24-1.09,11.85,11.85,0,0,0-7.68,3.18c-.38.35-1.23,1.18-2.62,2.56-.33.33-.47.33-.51.33s-.18,0-.45-.26a13.33,13.33,0,0,1-1.77-2,.37.37,0,0,1-.1-.25s0-.19.25-.44a77,77,0,0,0,7.12-6.63c1.46-1.51,2.7-2.85,3.67-4a.56.56,0,0,0-.42-.92H116c-1.4.27-2.84.56-4.3.87a10.3,10.3,0,0,0-1.26.36,1.63,1.63,0,0,1-.6.15.71.71,0,0,1-.66-.51,17,17,0,0,1-1-3.25,11.94,11.94,0,0,0,1.63.11c.39,0,.77,0,1.16-.05,2.06-.2,4.35-.55,6.82-1a7.65,7.65,0,0,0,1.64-.46,1.44,1.44,0,0,1,.57-.23,1.21,1.21,0,0,1,.69.23,12,12,0,0,1,2,1.92,1.22,1.22,0,0,1,.34.74.77.77,0,0,1-.51.72,5.91,5.91,0,0,0-1.32,1L117.71,140l-1.18,1.18a.55.55,0,0,0,.38.94l.15,0a8.63,8.63,0,0,1,2.39-.34,7.37,7.37,0,0,1,5.64,2.24,7.12,7.12,0,0,1,1.82,5,7.28,7.28,0,0,1-3.22,6.28A12.5,12.5,0,0,1,116.42,157.18Zm-1.72-5.53a1.53,1.53,0,0,0-1.09.38,1,1,0,0,0-.35.76c0,1.56,2,1.56,2.61,1.56.26,0,.5,0,.73,0a.56.56,0,0,0,.41-.25.54.54,0,0,0,.06-.48A2.46,2.46,0,0,0,114.7,151.65Z"/></g></g></svg>