<svg xmlns="http://www.w3.org/2000/svg" viewBox="0 0 908.46 1783.99"><defs><style>.cls-1{fill:#009abb;}.cls-2{fill:#fff;}</style></defs><g id="レイヤー_2" data-name="レイヤー 2"><g id="レイヤー_1-2" data-name="レイヤー 1"><path class="cls-1" d="M789.4,1776.45c54.24-16.26,86.64-104.9,103.64-207.07,13.56-81.48,17.32-171.56,14.58-240.4-3.85-96.44-16.43-163.41-26.08-234-9-66.1-15.52-135.34-9.84-234.92,5.3-93.06,19.5-165.17,25-229.2,6.7-77.62.65-143.37-49.42-220.18-40.23-61.71-60.41-138.7-78.09-209C745.83,108.86,726.81,27.68,671.62,9,618-9.27,578.92,3.34,541.54,20.07,502.22,37.66,464.72,59.82,413.9,55.46,356,50.5,327,16.83,284.16,9.46c-30.47-5.25-67.93,2.82-127.78,44C94.77,95.89,70.79,195.48,61.13,297c-10.67,112.14-3.84,226.58-11,268.72C42.31,612.34,21,687.46,8.87,786.37A1139.81,1139.81,0,0,0,3,1010.56c7.12,96.54,16.28,182.3,32.7,259,19.68,91.88,49.81,170.73,99.4,239.51,37.54,52.06,50.44,94.33,59.72,129.29,13.22,49.78,19.1,84.73,78.3,112,53.64,24.73,95-1.28,137.39-34.76,38.46-30.39,77.74-66.93,127.75-77.24,58.19-12,78.58,46.71,113.05,93.15C679.12,1769,716.08,1798.43,789.4,1776.45Z"/><path class="cls-2" d="M334.37,269.82l-6.84-2.3c5.56-1.92,8.82-7.86,8.82-13.55a10.49,10.49,0,0,0-3.52-7.86c-4.28,9.78-16.94,18.92-27.74,18.92l.06-.07c-5.94,0-8-4.86-8-10.1,0-8.69,6.14-13.42,13.93-15.47v-2.68c0-1.85.07-3.71.13-5.5h-14.7l3.39-9.58L302,224.5h9.85c.12-1.28.31-2.62.51-4l6.26-2.81v6.77h15.79v6.71H318.64v7c.7,0,1.34-.06,2-.06a45.3,45.3,0,0,1,10.61,1.09c.83-1.15,1.66-2.37,2.5-3.58.06,1.47.12,3,.19,4.47,6.64,2.43,11.44,7.86,11.44,15.15A15.61,15.61,0,0,1,334.37,269.82Zm-14.32-28.38c-.51,0-1,.06-1.41.06v3.9H322c-1.53,1.54-5.68,5.24-7.86,5.24s-2.75-5.81-2.87-7.41c-5,2.43-5.25,7.09-5.25,12.08,0,1.92,0,6.58,2.37,7.22a129.48,129.48,0,0,0,19.88-19.36A21,21,0,0,0,320.05,241.44Z"/><path class="cls-2" d="M406,238.05l-.76,5.69c-6.27,0-18,5.31-18,12.72,0,3.77,7.35,9.33,10,11.06l-8.63,2.88c-3.52-1.92-8.82-6.33-8.82-10.87,0-5.24,7.35-11.51,11.12-14-9.08,2.37-18.22,4.92-27.42,6.52l-2.88-7.86,19.5-2.62,12.65-22.37,5.44,2.17c.12,7.54-6.91,15.4-12.85,19.49Zm-33.17-1.21h-.57l-5.5-15.47c3.83,1.15,11.44,4.67,11.44,9.65C378.22,234.22,376.24,237,372.85,236.84Z"/><path class="cls-2" d="M470.46,239.78l-13.29-13.36c3.7,6.77,7.35,14.13,7.35,22.05,0,12.27-6.52,18.15-18.73,18.15-11.83,0-17.13-5.94-17.13-17.38a38.8,38.8,0,0,1,4.15-16.88H422.2l3.13-8.75,1.92,2.62h9.08l2.56-3.45,6.26,3.77c-4.86,6-11.31,17-11.31,25.18,0,1.41-.07,3.2.63,4.48,1.47,3,7.1,2.94,9.91,2.94,8.5,0,12.34-2.5,12.34-11.25V226l-1.22-1.21h.2c7.28-.07,16.1,2.87,18.28,10.67ZM467.9,225l-8.18-6.2a13.11,13.11,0,0,1,4.16-.7c2.43,0,5.69.83,5.69,3.83A4.11,4.11,0,0,1,467.9,225Zm7.87-3.51-8.44-6.39a14.35,14.35,0,0,1,4.35-.71c2.49,0,5.88.9,5.88,4A4.24,4.24,0,0,1,475.77,221.5Z"/><path class="cls-2" d="M513.8,268.61l-6-5.95h5.88a109.54,109.54,0,0,0,2.17-22.37c0-4-4.41-2.94-7.1-2.94-1.85,9.08-4.92,19.81-10,27.61l-6.45-1.53c3.13-8.5,5.75-17.32,8.12-26.08H487l3.52-8.89,2.43,2.75H502c1-3.77,1.79-7.6,2.56-11.37l6.46,2.49c-.26,3-.71,5.94-1.15,8.88h3.89c2.11,0,4.73.07,6.52,1.28,4,2.69,3.58,13.3,3.58,17.45C523.9,256.33,521.73,268.09,513.8,268.61Zm21-16.56-7.35-4.73,3.84-1-2.49-17.45c4.34,2.49,10,7.86,10,13.36A15.7,15.7,0,0,1,534.83,252.05Z"/><path class="cls-2" d="M583.8,234h-13l-7.42,31.77L557,263c0-9.71,2.23-19.81,5.24-29.08h-9l3.2-8.88,2,2.68h6c1.09-3.07,2.37-6.13,3.77-9.14l5.88,1.47-1.72,7.67h11.44ZM599,260.1l-1.47,7.42a58.37,58.37,0,0,1-8.82.77c-6.13,0-16.1-1.92-16.1-9.85,0-3.39,3.45-6.39,6.26-7.73v9.39Zm-7.09-8.24v-7.48h-16.3c3.26-3.64,8.82-7,13.87-7,4.16,0,9.4,3.26,9.4,7.87C598.89,248.6,594.67,251,591.92,251.86Z"/></g></g></svg>