<svg xmlns="http://www.w3.org/2000/svg" viewBox="0 0 906.09 1781.97"><defs><style>.cls-1{fill:#00a563;}.cls-2{fill:#fff;}.cls-3{fill:#e8e8e8;}.cls-4{fill:#0e0000;}</style></defs><g id="レイヤー_2" data-name="レイヤー 2"><g id="レイヤー_1-2" data-name="レイヤー 1"><path class="cls-1" d="M119.91,9.57C22.64,36.71-4.2,280.94,2,425,9.42,598.39,49.52,669.13,37.81,860.25s-60.17,265.22-25.54,417.17c37.25,163.5,206.41,127.92,201.2,243S229.47,1782,340.72,1782c134,0,60.94-242.62,159.84-234.74s107.18,153.85,250.79,61.85c129.37-82.89,48.54-419.56,62-494.07,13-71.74,106.55-197.41,90.94-394.43S883.33,415,792.57,297.81,735.43,76.92,634.89,33.8C532.8-10,495.25,57.66,390.41,77.77S283.74-36.14,119.91,9.57Z"/><path class="cls-2" d="M75.87,235.63l4.46,19.67-15.4,3.49L51.48,199.42,76,193.86c5.17-1.17,10.73-1.41,16.26,1.93S100,204,101.08,209c1.07,4.71,1.7,10.37-1.9,16s-9,7.46-13.61,8.51Zm-2.82-12.46L78.21,222c1.6-.36,4.59-1.23,6.07-3.34s1-4.45.73-5.88a7.35,7.35,0,0,0-3-4.93c-2.2-1.47-5.11-1.09-7.07-.65l-5.25,1.19Z"/><path class="cls-2" d="M141.49,192.78l-18.33,4.15,2.23,9.88,17.36-3.93,3,13.08-17.36,3.94,2.32,10.23L149,226l3,13.08-33.73,7.65-13.46-59.37,33.74-7.65Z"/><path class="cls-2" d="M177.27,184.67,187.76,231l-15.4,3.49-10.49-46.28L149.23,191l-3-13.08L187,168.72l3,13.09Z"/><path class="cls-2" d="M235.88,209.57l-21.54,4.88-1.75,10.88L196.31,229l9.33-64.53,16.82-3.82L258.25,215l-16.46,3.73Zm-6.76-10.82-11-17.72L216,201.73Z"/><path class="cls-2" d="M262.44,214,259,152.38l15.22-3.45,19.2,29L299,143.33l15.39-3.49,22.36,57.35-15.4,3.49-12.11-33.19-6.58,37.42-6.14,1.39-21.46-31.07,2.68,35.33Z"/><path class="cls-2" d="M357.49,171.81,362,191.48,346.55,195,333.09,135.6,357.66,130c5.16-1.17,10.73-1.4,16.25,1.94s7.66,8.18,8.79,13.16c1.07,4.72,1.7,10.38-1.9,16s-9,7.46-13.61,8.51Zm-2.82-12.46,5.16-1.17c1.6-.37,4.59-1.23,6.07-3.34s1.05-4.45.73-5.88a7.37,7.37,0,0,0-3-4.93c-2.21-1.47-5.11-1.09-7.07-.65l-5.25,1.19Z"/><path class="cls-2" d="M71.36,271.67l3.53,15.55A5.44,5.44,0,0,0,77.14,291a5.05,5.05,0,0,0,3.52.53,5.14,5.14,0,0,0,2.89-1.85c1.26-1.74.78-3.66.45-5.12l-3.39-15L87.43,268l3.41,15.08c.63,2.75,1.16,5.65-1,9.17-1.7,2.75-4.22,4.39-7.92,5.23-4.14.94-7.41.19-9.42-1.17-2.85-2-3.88-5.25-4.51-8l-3.42-15.08Z"/><path class="cls-2" d="M92.74,275.93,99,274.5l.5,2.21a6.81,6.81,0,0,1,5-3.87,7.34,7.34,0,0,1,5.63.71c1.83,1.16,2.33,2.62,2.77,4.55l2.53,11.18-6.3,1.43-2-8.9c-.23-1-.54-2.57-1.56-3.25a2.74,2.74,0,0,0-2.18-.29,3.54,3.54,0,0,0-2.13,1.35,4.15,4.15,0,0,0-.39,3L103,292.1l-6.3,1.43Z"/><path class="cls-2" d="M138.9,284l-6.3,1.43-.43-1.93a6.64,6.64,0,0,1-4.75,3.73,8.63,8.63,0,0,1-6.73-1,10,10,0,0,1-4.43-6.37,9.81,9.81,0,0,1,1.3-7.62,9.22,9.22,0,0,1,5.68-3.77,7.13,7.13,0,0,1,5.76,1.09l-2.9-12.79,6.3-1.43Zm-8.76-4.14a4.3,4.3,0,0,0,.66-3.29A4.67,4.67,0,0,0,129,274a4.15,4.15,0,0,0-5.68,1.24,4.41,4.41,0,0,0-.54,3.27A4.05,4.05,0,0,0,124.6,281a4,4,0,0,0,3.07.55A4.39,4.39,0,0,0,130.14,279.83Z"/><path class="cls-2" d="M160.17,271.12l-13.11,3a4.53,4.53,0,0,0,1.77,2.71,3.67,3.67,0,0,0,2.8.27,5,5,0,0,0,1.94-.93,3,3,0,0,0,.83-1.43l6-1.37a8.16,8.16,0,0,1-1.31,4.11c-1,1.55-2.79,3.19-6.61,4.06a10.19,10.19,0,0,1-7.89-1,9.43,9.43,0,0,1-4.11-6.06A9.65,9.65,0,0,1,141.6,267a10.17,10.17,0,0,1,6.63-4.19,9.89,9.89,0,0,1,7.32.86,10.13,10.13,0,0,1,4.47,6.77Zm-6.61-2.31a4.4,4.4,0,0,0-1.45-1.66,3.71,3.71,0,0,0-2.81-.35,3.47,3.47,0,0,0-2.35,1.52,3.74,3.74,0,0,0-.51,2.11Z"/><path class="cls-2" d="M161.54,260.34l6.3-1.43.65,2.87a5.82,5.82,0,0,1,1.93-3,7.05,7.05,0,0,1,3.11-1.45c.15,0,.44-.06,1.28-.21l1.34,5.95a5.64,5.64,0,0,0-2.86,0,4.22,4.22,0,0,0-2.66,1.59,5.43,5.43,0,0,0-.5,4.34l1.7,7.52-6.3,1.43Z"/><path class="cls-2" d="M200.93,269.17a16.64,16.64,0,0,1-5.61,2.64,14.64,14.64,0,0,1-11-1.64,14.11,14.11,0,0,1-6.15-8.66,14.14,14.14,0,0,1,10.78-16.94,16.79,16.79,0,0,1,6.44,0l1.85,8.15a7.51,7.51,0,0,0-6.6-1.52,6.77,6.77,0,0,0-4.33,2.8,7.17,7.17,0,0,0,7.52,11.25,7.91,7.91,0,0,0,5.32-4.1Z"/><path class="cls-2" d="M222,262.69a12.36,12.36,0,0,1-15.72,3.56,9,9,0,0,1-4.19-5.88,8.9,8.9,0,0,1,1.26-7.07,11.21,11.21,0,0,1,7.17-4.69,11.42,11.42,0,0,1,8.54,1.13,8.87,8.87,0,0,1,4.18,5.84A9,9,0,0,1,222,262.69Zm-12.8-6.95a4,4,0,0,0,1.29,5.67,4,4,0,0,0,5.63-1.28,3.92,3.92,0,0,0,.58-3.07,4.11,4.11,0,0,0-4.92-3.1A4.45,4.45,0,0,0,209.23,255.74Z"/><path class="cls-2" d="M223.33,246.33l6.3-1.42.5,2.2a6.81,6.81,0,0,1,5-3.86,7.3,7.3,0,0,1,5.63.71c1.84,1.16,2.33,2.62,2.77,4.55l2.53,11.18-6.3,1.43-2-8.9c-.24-1-.54-2.57-1.57-3.25a2.66,2.66,0,0,0-2.18-.29,3.5,3.5,0,0,0-2.13,1.35,4.13,4.13,0,0,0-.39,3l2.14,9.45-6.3,1.43Z"/><path class="cls-2" d="M248.6,253a9.11,9.11,0,0,0,2.82.73,8.38,8.38,0,0,0,2.54-.12,2.7,2.7,0,0,0,1.51-.84,1,1,0,0,0,.12-.89.94.94,0,0,0-.49-.72,4,4,0,0,0-1.8-.25l-1.74,0a5.81,5.81,0,0,1-3.42-.84,4.41,4.41,0,0,1-1.83-2.78,6.46,6.46,0,0,1,.68-4.66c1-1.69,3.22-3,5.82-3.56a14.88,14.88,0,0,1,5.89-.13l-1.22,4.5a8.84,8.84,0,0,0-3.5-.12,2.76,2.76,0,0,0-1.38.68,1,1,0,0,0-.35,1,1,1,0,0,0,1,.81c.64.1,1.16,0,2.2,0l1.22.06a7.58,7.58,0,0,1,2.91.78,5.14,5.14,0,0,1,2.13,3.21,6,6,0,0,1-.78,4.77c-1.58,2.51-4.54,3.35-6,3.68a13.34,13.34,0,0,1-7.55-.45Z"/><path class="cls-2" d="M270.42,241.09l2.82,12.44-6.3,1.43-2.82-12.45-2,.46-1.17-5.16,2-.45-1.31-5.79,6.3-1.43,1.31,5.79,3.58-.81,1.17,5.15Z"/><path class="cls-2" d="M275.2,234.58l6.3-1.43.65,2.88a5.81,5.81,0,0,1,1.93-3,7.07,7.07,0,0,1,3.1-1.45c.16,0,.45,0,1.28-.2l1.35,5.94a5.78,5.78,0,0,0-2.86,0,4.21,4.21,0,0,0-2.66,1.6,5.46,5.46,0,0,0-.51,4.33l1.71,7.52-6.3,1.43Z"/><path class="cls-2" d="M297.6,229.5l2.24,9.85a3.42,3.42,0,0,0,1.52,2.34,3.34,3.34,0,0,0,2.36.17,3,3,0,0,0,2.07-1.26,3.36,3.36,0,0,0,.35-2.68l-2.24-9.85,6.3-1.42,2.49,11a6.19,6.19,0,0,1-.62,5.11c-1.66,2.74-4.63,3.66-7,4.2-2.63.6-5.93,1.06-8.52-.71a6.54,6.54,0,0,1-2.72-4.31l-2.49-11Z"/><path class="cls-2" d="M331.75,239.86a9.55,9.55,0,0,1-4.15,2,9.94,9.94,0,0,1-7.54-1.11,9.44,9.44,0,0,1-4.2-6,9.8,9.8,0,0,1,1.29-7.45,10.36,10.36,0,0,1,6.48-4.28,9.26,9.26,0,0,1,4.32.05l1.19,5.28a5.65,5.65,0,0,0-3.52-.4,4.25,4.25,0,0,0-2.8,1.91,4.41,4.41,0,0,0-.53,3.31,4.6,4.6,0,0,0,1.77,2.71,4.39,4.39,0,0,0,3.53.6,4.86,4.86,0,0,0,3-1.91Z"/><path class="cls-2" d="M339.57,225.41l2.82,12.45-6.3,1.42-2.82-12.44-2,.46-1.16-5.16,2-.46-1.31-5.78,6.3-1.43,1.31,5.79,3.59-.82,1.17,5.16Z"/><path class="cls-2" d="M345,207.33a3.63,3.63,0,1,1-2.74,4.34A3.62,3.62,0,0,1,345,207.33Zm5.61,10.15,4,17.6-6.3,1.43-4-17.6Z"/><path class="cls-2" d="M374.55,228.13a12.37,12.37,0,0,1-15.71,3.56,9.32,9.32,0,0,1-2.94-13,11.3,11.3,0,0,1,7.18-4.69,11.42,11.42,0,0,1,8.54,1.13,9.31,9.31,0,0,1,2.93,13Zm-12.79-7a4.17,4.17,0,0,0-.57,3.15,4.2,4.2,0,0,0,4.95,3.06,4.07,4.07,0,0,0,2.53-1.81,4,4,0,0,0,.59-3.07,4.38,4.38,0,0,0-1.87-2.6,4.14,4.14,0,0,0-5.63,1.27Z"/><path class="cls-2" d="M375.86,211.77l6.3-1.43.5,2.21a6.79,6.79,0,0,1,5-3.87,7.3,7.3,0,0,1,5.63.71c1.83,1.16,2.33,2.62,2.77,4.55l2.53,11.18-6.3,1.43-2-8.9c-.23-1-.54-2.57-1.56-3.25a2.75,2.75,0,0,0-2.18-.29,3.55,3.55,0,0,0-2.14,1.35,4.2,4.2,0,0,0-.39,3l2.15,9.45-6.3,1.43Z"/><ellipse class="cls-3" cx="587.36" cy="1481.61" rx="74.78" ry="57.02" transform="translate(-933.24 1959.01) rotate(-85.81)"/><ellipse class="cls-4" cx="602.55" cy="1500.47" rx="35.28" ry="46.27"/><ellipse class="cls-3" cx="689.1" cy="1535.18" rx="47.72" ry="62.58"/><ellipse class="cls-4" cx="701.81" cy="1550.97" rx="29.53" ry="38.72"/></g></g></svg>