<svg xmlns="http://www.w3.org/2000/svg" viewBox="0 0 906.09 1781.97"><defs><style>.cls-1{fill:#00a563;}.cls-2{font-size:91.26px;}.cls-2,.cls-5{fill:#fff;font-family:FuturaPT-Bold, Futura PT;font-weight:700;}.cls-3{letter-spacing:0.04em;}.cls-4{letter-spacing:-0.06em;}.cls-5{font-size:40.38px;}.cls-6{letter-spacing:-0.04em;}.cls-7{letter-spacing:-0.02em;}.cls-8{fill:#e8e8e8;}.cls-9{fill:#0e0000;}</style></defs><g id="レイヤー_2" data-name="レイヤー 2"><g id="レイヤー_1-2" data-name="レイヤー 1"><path class="cls-1" d="M119.91,9.57C22.64,36.71-4.2,280.94,2,425,9.42,598.39,49.52,669.13,37.81,860.25s-60.17,265.22-25.54,417.17c37.25,163.5,206.41,127.92,201.2,243S229.47,1782,340.72,1782c134,0,60.94-242.62,159.84-234.74s107.18,153.85,250.79,61.85c129.37-82.89,48.54-419.56,62-494.07,13-71.74,106.55-197.41,90.94-394.43S883.33,415,792.57,297.81,735.43,76.92,634.89,33.8C532.8-10,495.25,57.66,390.41,77.77S283.74-36.14,119.91,9.57Z"/><text class="cls-2" transform="matrix(0.98, -0.22, 0.22, 0.98, 58.68, 260.22)">P<tspan class="cls-3" x="54.67" y="0">E</tspan><tspan class="cls-4" x="102.95" y="0">T</tspan><tspan x="140.46" y="0">AMP</tspan></text><text class="cls-5" transform="matrix(0.98, -0.22, 0.22, 0.98, 67.72, 300.12)"><tspan class="cls-6">U</tspan><tspan class="cls-7" x="27.5" y="0">n</tspan><tspan x="50.31" y="0">derC</tspan><tspan class="cls-6" x="138.34" y="0">on</tspan><tspan x="183.41" y="0">struct</tspan><tspan class="cls-6" x="285.49" y="0">io</tspan><tspan x="317.8" y="0">n</tspan></text><ellipse class="cls-8" cx="587.36" cy="1481.61" rx="74.78" ry="57.02" transform="translate(-933.24 1959.01) rotate(-85.81)"/><ellipse class="cls-9" cx="602.55" cy="1500.47" rx="35.28" ry="46.27"/><ellipse class="cls-8" cx="689.1" cy="1535.18" rx="47.72" ry="62.58"/><ellipse class="cls-9" cx="701.81" cy="1550.97" rx="29.53" ry="38.72"/></g></g></svg>