<svg xmlns="http://www.w3.org/2000/svg" viewBox="0 0 906.09 1781.97"><defs><style>.cls-1{fill:#00a563;}.cls-2{fill:#e8e8e8;}.cls-3{fill:#0e0000;}</style></defs><g id="レイヤー_2" data-name="レイヤー 2"><g id="レイヤー_1-2" data-name="レイヤー 1"><path class="cls-1" d="M119.91,9.57C22.64,36.71-4.2,280.94,2,425,9.42,598.39,49.52,669.13,37.81,860.25s-60.17,265.22-25.54,417.17c37.25,163.5,206.41,127.92,201.2,243S229.47,1782,340.72,1782c134,0,60.94-242.62,159.84-234.74s107.18,153.85,250.79,61.85c129.37-82.89,48.54-419.56,62-494.07,13-71.74,106.55-197.41,90.94-394.43S883.33,415,792.57,297.81,735.43,76.92,634.89,33.8C532.8-10,495.25,57.66,390.41,77.77S283.74-36.14,119.91,9.57Z"/><ellipse class="cls-2" cx="587.36" cy="1481.61" rx="74.78" ry="57.02" transform="matrix(0.07, -1, 1, 0.07, -933.24, 1959.01)"/><ellipse class="cls-3" cx="602.55" cy="1500.47" rx="35.28" ry="46.27"/><ellipse class="cls-2" cx="689.1" cy="1535.18" rx="47.72" ry="62.58"/><ellipse class="cls-3" cx="701.81" cy="1550.97" rx="29.53" ry="38.72"/></g></g></svg>