<svg xmlns="http://www.w3.org/2000/svg" viewBox="0 0 247.91 258.22"><defs><style>.cls-1{fill:#e8e8e8;}.cls-2{fill:#030000;}</style></defs><g id="レイヤー_2" data-name="レイヤー 2"><g id="その他"><ellipse class="cls-1" cx="57.13" cy="122.16" rx="57.02" ry="74.78" transform="translate(-8.78 4.51) rotate(-4.19)"/><ellipse class="cls-2" cx="72.32" cy="103.29" rx="35.28" ry="46.27"/><ellipse class="cls-1" cx="161.87" cy="62.58" rx="47.72" ry="62.58"/><ellipse class="cls-2" cx="174.58" cy="46.79" rx="29.53" ry="38.72"/><path class="cls-1" d="M91.57,258.22a33.69,33.69,0,0,1-10.75-1.91,7.34,7.34,0,1,1,4.68-13.92c4.08,1.37,7.47,1.5,9.8.36,5.61-2.73,7-14.06,8.17-24.06,1.43-11.94,2.92-24.28,12.82-28.21,10.26-4.06,19.59,4.79,27.83,12.59,5.38,5.09,12.75,12.07,16.43,11.05,4.49-1.24,7.58-14.45,9.62-23.19,3.27-14,6.35-27.16,17.58-29,10.44-1.72,17.79,8.51,24.9,18.41,4.12,5.73,11,15.32,14.55,14.84a18.36,18.36,0,0,0,2.3-.43c.5-.57,2.05-3.25,3.8-15.38a7.35,7.35,0,0,1,14.54,2.11C245,200.8,241.79,208,229.19,209.7c-12.31,1.68-20.89-10.27-28.46-20.81-3-4.19-7.94-11-10.51-12.32-2.16,2.36-4.39,11.89-5.75,17.7-3.34,14.27-7.12,30.45-20,34-11.67,3.22-21.64-6.22-30.43-14.55-3.5-3.31-10-9.43-12.38-9.56-1.83,1.53-3,11.11-3.6,16.27-1.57,13-3.52,29.27-16.31,35.51A22.94,22.94,0,0,1,91.57,258.22Z"/></g></g></svg>