<svg xmlns="http://www.w3.org/2000/svg" viewBox="0 0 340.17 419.4"><defs><style>.cls-1{fill:#e8e8e8;}.cls-2{fill:#030000;}</style></defs><g id="レイヤー_2" data-name="レイヤー 2"><g id="その他"><path class="cls-1" d="M16.61,397.46v21.22H0v-64H26.49c5.57,0,11.33,1.06,16.23,5.76s6,10.18,6,15.55c0,5.09-.67,11-5.67,15.94s-10.94,5.56-15.93,5.56Zm0-13.44h5.56c1.73,0,5-.19,7-2s2.11-4.32,2.11-5.86a7.78,7.78,0,0,0-1.92-5.76c-1.92-2-5-2.3-7.1-2.3H16.61Z"/><path class="cls-1" d="M92,368.76H72.19v10.66H90.91v14.11H72.19v11H92v14.11H55.58v-64H92Z"/><path class="cls-1" d="M130.56,368.76v49.92H114V368.76H100.32V354.65h43.87v14.11Z"/><path class="cls-1" d="M186.81,407.93H163.58l-4.32,10.75H141.7l24.57-64h18.14l24.1,64H190.75Zm-4.41-12.67-7.2-20.74-7,20.74Z"/><path class="cls-1" d="M247,378.19l18.73-24.28h12.62V419.4H263.88V378.52l-15.75,20.53H246l-15.74-20.53V419.4H215.69V353.91H228.3Z"/><path class="cls-1" d="M308.1,397.46v21.22H291.5v-64H318c5.57,0,11.33,1.06,16.22,5.76s6,10.18,6,15.55c0,5.09-.68,11-5.67,15.94s-10.94,5.56-15.93,5.56Zm0-13.44h5.57c1.73,0,5-.19,7-2s2.11-4.32,2.11-5.86a7.78,7.78,0,0,0-1.92-5.76c-1.92-2-5-2.3-7.1-2.3H308.1Z"/><ellipse class="cls-1" cx="97.42" cy="122.16" rx="57.02" ry="74.78" transform="translate(-8.68 7.45) rotate(-4.19)"/><ellipse class="cls-2" cx="112.6" cy="103.29" rx="35.28" ry="46.27"/><ellipse class="cls-1" cx="202.15" cy="62.58" rx="47.72" ry="62.58"/><ellipse class="cls-2" cx="214.86" cy="46.79" rx="29.53" ry="38.72"/><path class="cls-1" d="M131.85,258.22a33.63,33.63,0,0,1-10.74-1.91,7.34,7.34,0,1,1,4.68-13.92c4.08,1.37,7.47,1.5,9.79.36,5.61-2.73,7-14.06,8.17-24.06,1.44-11.94,2.92-24.28,12.83-28.21,10.25-4.06,19.59,4.79,27.83,12.59,5.38,5.09,12.75,12.07,16.42,11.05,4.49-1.24,7.58-14.45,9.63-23.19,3.26-14,6.35-27.16,17.58-29,10.43-1.72,17.78,8.51,24.9,18.41,4.11,5.73,11,15.32,14.55,14.84a18.2,18.2,0,0,0,2.29-.43c.51-.57,2.05-3.25,3.81-15.38a7.34,7.34,0,1,1,14.53,2.11c-2.8,19.34-6,26.52-18.64,28.24-12.31,1.68-20.89-10.27-28.47-20.81-3-4.19-7.93-11-10.51-12.32-2.16,2.36-4.39,11.89-5.75,17.7-3.33,14.27-7.12,30.45-20,34-11.66,3.22-21.63-6.22-30.43-14.55-3.49-3.31-9.95-9.43-12.37-9.56-1.84,1.53-3,11.11-3.61,16.27-1.56,13-3.51,29.27-16.3,35.51A23,23,0,0,1,131.85,258.22Z"/></g></g></svg>