<?xml version="1.0" encoding="utf-8"?>
<!-- Generator: Adobe Illustrator 25.1.0, SVG Export Plug-In . SVG Version: 6.00 Build 0)  -->
<svg version="1.1" id="レイヤー_1" xmlns="http://www.w3.org/2000/svg" xmlns:xlink="http://www.w3.org/1999/xlink" x="0px"
	 y="0px" viewBox="0 0 1190.55 841.89" style="enable-background:new 0 0 1190.55 841.89;" xml:space="preserve">
<style type="text/css">
	.st0{display:none;fill:none;stroke:#FFFFFF;stroke-width:4.9007;stroke-linecap:round;stroke-miterlimit:10;}
	.st1{fill:#FFFFFF;}
	.st2{fill:#060001;}
	.st3{fill:none;stroke:#FFFFFF;stroke-width:6;stroke-linecap:round;stroke-linejoin:round;stroke-miterlimit:10;}
	.st4{font-family:'Futura-Bold';}
	.st5{font-size:118.2823px;}
	.st6{display:none;fill:none;stroke:#FFFFFF;stroke-width:5.7421;stroke-linecap:round;stroke-miterlimit:10;}
	.st7{fill:none;stroke:#FFFFFF;stroke-width:7.0301;stroke-linecap:round;stroke-linejoin:round;stroke-miterlimit:10;}
	.st8{fill:#E9E8E8;}
</style>
<text transform="matrix(1 0 0 1 332.7109 623.9676)" class="st1 st4 st5">PETAMP</text>
<g>
	<g>
		<path class="st6" d="M545.86,443.8c0,0,6.84-47.48,15.43-48.84c8.6-1.37,38.46,14.3,49.05,7.98s11.89-39,22.3-40.66
			c10.41-1.65,33.88,11.78,37.75,18.59"/>
		
			<ellipse transform="matrix(0.9973 -0.0732 0.0732 0.9973 -22.7424 37.4815)" class="st1" cx="500.33" cy="329.22" rx="54.12" ry="70.98"/>
		<ellipse class="st2" cx="514.74" cy="311.31" rx="33.48" ry="43.92"/>
		<ellipse class="st1" cx="599.73" cy="272.68" rx="45.29" ry="59.4"/>
		<ellipse class="st2" cx="611.8" cy="257.69" rx="28.02" ry="36.75"/>
	</g>
	<path class="st7" d="M514.74,472.81c4.07,0.88,10.71,1.64,16.16-1.83c17.04-10.84,2.68-50.44,15.35-57.19
		c12.21-6.51,33.41,26.07,48.62,19.95c16.93-6.8,7.78-53.97,21.63-57.9c12.83-3.65,29.54,34.32,45.25,30.33
		c6.64-1.69,9.72-2.97,10.4-24.65"/>
</g>
</svg>
